<svg width="31" height="31" viewBox="0 0 31 31" fill="none" xmlns="http://www.w3.org/2000/svg">
<path fill-rule="evenodd" clip-rule="evenodd" d="M3.75507 3.75492C2.5835 4.9265 2.5835 6.81212 2.5835 10.5834V20.4167C2.5835 24.1879 2.5835 26.0735 3.75507 27.2451C4.92664 28.4167 6.81226 28.4167 10.5835 28.4167H20.4168C24.1881 28.4167 26.0737 28.4167 27.2453 27.2451C28.4168 26.0735 28.4168 24.1879 28.4168 20.4167V10.5834C28.4168 7.49115 28.4168 5.66667 27.771 4.46406V21.9583C27.4952 21.9583 27.3573 21.9583 27.2245 21.9495C26.3488 21.8912 25.5166 21.5465 24.8562 20.9685C24.756 20.8809 24.6585 20.7834 24.4635 20.5883L23.4926 19.6174C22.1619 18.2867 21.4965 17.6213 20.6698 17.6201H20.6638C19.8372 17.6213 19.1718 18.2867 17.8411 19.6174L17.589 19.8695C16.6426 20.8159 16.1694 21.2891 15.6484 21.1888C15.1273 21.0884 14.8637 20.4733 14.3365 19.2431L13.9525 18.3471C12.898 15.8867 12.3708 14.6565 11.3288 14.4558C10.2867 14.2551 9.3403 15.2016 7.44748 17.0944L4.521 20.0208V3.1994C4.23353 3.3466 3.98102 3.52897 3.75507 3.75492Z" fill="#222222"/>
<path d="M3.5835 10.5833C3.5835 8.66943 3.58562 7.33461 3.72103 6.32747C3.85256 5.34911 4.09316 4.83101 4.46218 4.46199C4.83119 4.09298 5.34929 3.85238 6.32766 3.72084C7.33479 3.58544 8.66961 3.58331 10.5835 3.58331H20.4168C22.3307 3.58331 23.6655 3.58544 24.6727 3.72084C25.651 3.85238 26.1691 4.09298 26.5381 4.46199L27.228 3.77213L26.5382 4.46199C26.9072 4.83101 27.1478 5.34911 27.2793 6.32747C27.4147 7.33461 27.4168 8.66943 27.4168 10.5833V20.4166C27.4168 22.3305 27.4147 23.6653 27.2793 24.6725C27.1478 25.6509 26.9072 26.1689 26.5381 26.538C26.1691 26.907 25.651 27.1476 24.6727 27.2791C23.6655 27.4145 22.3307 27.4166 20.4168 27.4166H10.5835C8.66961 27.4166 7.33479 27.4145 6.32766 27.2791C5.34929 27.1476 4.83119 26.907 4.46218 26.538C4.09316 26.1689 3.85256 25.6509 3.72103 24.6725C3.58562 23.6653 3.5835 22.3305 3.5835 20.4166V10.5833Z" stroke="#222222" stroke-width="2"/>
<circle cx="19.3748" cy="11.625" r="2.58333" fill="#222222"/>
</svg>
