<svg width="42" height="40" viewBox="0 0 42 40" fill="none" xmlns="http://www.w3.org/2000/svg">
<path d="M27 13.3334C27 16.4176 24.3602 19 21 19C17.6398 19 15 16.4176 15 13.3334C15 10.2492 17.6398 7.66669 21 7.66669C24.3602 7.66669 27 10.2492 27 13.3334Z" stroke="black" stroke-width="2" stroke-linecap="round"/>
<path d="M26.0585 13.0184C26.6139 12.1022 27.5378 11.4202 28.6385 11.1393C29.7398 10.8583 30.9119 11.0066 31.8932 11.5461C32.8731 12.0849 33.5735 12.9637 33.8585 13.9767C34.1431 14.9882 33.9956 16.0675 33.4415 16.9816C32.8861 17.8978 31.9622 18.5798 30.8615 18.8607C29.7602 19.1417 28.5881 18.9934 27.6068 18.4539C26.6269 17.9151 25.9265 17.0363 25.6415 16.0233C25.3569 15.0118 25.5044 13.9325 26.0585 13.0184L26.0585 13.0184Z" stroke="black" stroke-width="2"/>
<path d="M8.5585 13.0184C9.11391 12.1022 10.0378 11.4202 11.1385 11.1393C12.2398 10.8583 13.4119 11.0066 14.3932 11.5461C15.3731 12.0849 16.0735 12.9637 16.3585 13.9767C16.6431 14.9882 16.4956 16.0675 15.9415 16.9816C15.3861 17.8978 14.4622 18.5798 13.3615 18.8607C12.2602 19.1417 11.0881 18.9934 10.1068 18.4539C9.12694 17.9151 8.42654 17.0363 8.14152 16.0233C7.85694 15.0118 8.00438 13.9325 8.5585 13.0184L8.5585 13.0184Z" stroke="black" stroke-width="2"/>
<path d="M29.5426 30L28.5642 30.2069L28.732 31H29.5426V30ZM36.4981 28.8913L37.4581 28.6113V28.6113L36.4981 28.8913ZM25.8662 24.5175L25.2801 23.7073L24.0448 24.6009L25.3566 25.3779L25.8662 24.5175ZM35.6099 29H29.5426V31H35.6099V29ZM35.5381 29.1713C35.5343 29.1585 35.5308 29.1319 35.5378 29.0993C35.5445 29.0685 35.5576 29.0449 35.5703 29.0294C35.5953 28.9989 35.6166 29 35.6099 29V31C36.7839 31 37.84 29.921 37.4581 28.6113L35.5381 29.1713ZM29.7498 24.3333C31.7108 24.3333 32.9995 25.1091 33.8799 26.075C34.7872 27.0705 35.2834 28.2983 35.5381 29.1713L37.4581 28.6113C37.1598 27.5886 36.5517 26.0374 35.358 24.7278C34.1374 23.3886 32.3285 22.3333 29.7498 22.3333V24.3333ZM26.4523 25.3278C27.2537 24.7481 28.3148 24.3333 29.7498 24.3333V22.3333C27.895 22.3333 26.4235 22.8802 25.2801 23.7073L26.4523 25.3278ZM25.3566 25.3779C27.43 26.6061 28.2468 28.7056 28.5642 30.2069L30.521 29.7931C30.1521 28.0489 29.1458 25.2978 26.3758 23.6571L25.3566 25.3779Z" fill="black"/>
<path d="M16.1334 24.5175L16.643 25.3779L17.9549 24.6009L16.7195 23.7073L16.1334 24.5175ZM5.50157 28.8913L4.54157 28.6113L5.50157 28.8913ZM12.457 30V31H13.2676L13.4353 30.2069L12.457 30ZM12.2499 24.3333C13.6849 24.3333 14.746 24.7481 15.5473 25.3277L16.7195 23.7073C15.5762 22.8802 14.1047 22.3333 12.2499 22.3333V24.3333ZM6.46157 29.1713C6.71621 28.2983 7.21247 27.0705 8.11976 26.075C9.00016 25.1091 10.2889 24.3333 12.2499 24.3333V22.3333C9.6712 22.3333 7.86223 23.3886 6.64163 24.7278C5.44793 26.0374 4.83988 27.5886 4.54157 28.6113L6.46157 29.1713ZM6.38968 29C6.38307 29 6.4043 28.9989 6.42931 29.0294C6.442 29.0449 6.45517 29.0685 6.46178 29.0993C6.4688 29.1319 6.46531 29.1585 6.46157 29.1713L4.54157 28.6113C4.15958 29.921 5.21568 31 6.38968 31V29ZM12.457 29H6.38968V31H12.457V29ZM13.4353 30.2069C13.7528 28.7056 14.5696 26.606 16.643 25.3779L15.6238 23.6571C12.8538 25.2978 11.8475 28.0489 11.4786 29.7931L13.4353 30.2069Z" fill="black"/>
<path d="M21 23.3333C27.8644 23.3333 29.3437 28.4621 29.6624 30.6725C29.7413 31.2191 29.3023 31.6666 28.75 31.6666H13.25C12.6977 31.6666 12.2587 31.2191 12.3376 30.6725C12.6563 28.4621 14.1356 23.3333 21 23.3333Z" stroke="black" stroke-width="2" stroke-linecap="round"/>
</svg>
