<svg width="30" height="30" viewBox="0 0 30 30" fill="none" xmlns="http://www.w3.org/2000/svg">
<path d="M11.1023 24.925C11.0059 25.5321 10.4824 25.9791 9.86774 25.9791H5.07805C4.01962 25.9813 3.15976 25.1252 3.15747 24.0667C3.15725 23.9598 3.16596 23.8531 3.18354 23.7476L6.42084 3.23975C6.6049 2.09547 7.59095 1.25309 8.74994 1.25H16.5173C19.7179 1.25 22.0275 2.02515 23.3825 3.55346C24.6908 5.06078 25.1933 7.10584 24.7326 9.04785C24.7058 9.21631 24.6789 9.38599 24.6386 9.57035C23.6096 14.8426 20.0695 17.6416 14.4067 17.6416H12.2582L11.1023 24.925ZM5.65301 24.1395L5.65058 24.148L5.65301 24.1395ZM8.89154 3.62071L8.89029 3.62321L8.89154 3.62071Z" fill="#3A5FEB"/>
<path d="M25.5455 8.88061C25.3379 8.64814 25.1097 8.43589 24.8643 8.24561C24.8369 8.51386 24.7956 8.78181 24.7325 9.04783C24.7057 9.21629 24.6788 9.38597 24.6385 9.57029C23.6095 14.8425 20.0695 17.6416 14.4066 17.6416H12.2582L11.1023 24.925C11.0059 25.5321 10.4824 25.9791 9.86767 25.9791H8.40808L8.30555 26.6296C8.2906 26.7242 8.28303 26.8199 8.28296 26.9157C8.28258 27.9284 9.1032 28.7496 10.1158 28.75H14.1588C15.2409 28.7591 16.169 27.9801 16.3476 26.9128L17.1484 21.8738L17.1618 21.8055H17.5354C22.5756 21.8055 25.7238 19.3139 26.6418 14.602C27.2097 12.6292 26.8026 10.5038 25.5455 8.88061Z" fill="#8EA6FF"/>
</svg>
