<svg width="18" height="18" viewBox="0 0 18 18" fill="none" xmlns="http://www.w3.org/2000/svg">
<g opacity="0.7">
<path d="M10.3809 11.25L7.41504 14.25L10.3809 17.25" stroke="#33363F" stroke-width="2"/>
<path d="M13.393 6.375C13.8486 7.1731 14.0884 8.07843 14.0884 9C14.0884 9.92157 13.8486 10.8269 13.393 11.625C12.9375 12.4231 12.2822 13.0858 11.4932 13.5466C10.7042 14.0074 9.80913 14.25 8.89804 14.25" stroke="#33363F" stroke-width="2" stroke-linecap="round"/>
<path d="M7.41446 6.75L10.3804 3.75L7.41446 0.75" stroke="#33363F" stroke-width="2"/>
<path d="M4.40241 11.625C3.94686 10.8269 3.70703 9.92157 3.70703 9C3.70703 8.07843 3.94686 7.1731 4.40241 6.375C4.85795 5.5769 5.51317 4.91415 6.3022 4.45337C7.09123 3.99258 7.98628 3.75 8.89737 3.75" stroke="#33363F" stroke-width="2" stroke-linecap="round"/>
</g>
</svg>
