<svg width="18" height="18" viewBox="0 0 18 18" fill="none" xmlns="http://www.w3.org/2000/svg">
<path d="M7.27839 3.81742C8.00795 1.93914 8.37272 1 9 1C9.62728 1 9.99205 1.93914 10.7216 3.81742L10.7556 3.90488C11.1677 4.96602 11.3738 5.49659 11.7938 5.81907C12.2138 6.14156 12.7652 6.19255 13.8679 6.29454L14.0672 6.31298C15.8719 6.47989 16.7743 6.56334 16.9673 7.15622C17.1604 7.74909 16.4903 8.37871 15.1501 9.63794L14.7028 10.0582C14.0243 10.6956 13.6851 11.0144 13.527 11.4321C13.4975 11.51 13.4729 11.5899 13.4536 11.6711C13.3496 12.1066 13.449 12.5689 13.6476 13.4937L13.7095 13.7815C14.0746 15.481 14.2572 16.3308 13.9384 16.6973C13.8193 16.8343 13.6645 16.9329 13.4925 16.9813C13.0323 17.111 12.3789 16.5612 11.0722 15.4615C10.2141 14.7394 9.78506 14.3784 9.29247 14.2972C9.09872 14.2652 8.90128 14.2652 8.70753 14.2972C8.21494 14.3784 7.78591 14.7394 6.92783 15.4615C5.62107 16.5612 4.96768 17.111 4.50747 16.9813C4.3355 16.9329 4.1807 16.8343 4.06159 16.6973C3.74283 16.3308 3.92539 15.481 4.29052 13.7815L4.35236 13.4937C4.55103 12.5689 4.65037 12.1066 4.54644 11.6711C4.52705 11.5899 4.50253 11.51 4.47304 11.4321C4.31493 11.0144 3.9757 10.6956 3.29725 10.0582L2.84995 9.63794C1.50971 8.37871 0.839586 7.74909 1.03267 7.15622C1.22575 6.56334 2.12809 6.47989 3.93278 6.31298L4.13213 6.29454C5.23482 6.19255 5.78616 6.14156 6.20617 5.81907C6.62618 5.49659 6.83226 4.96602 7.24442 3.90488L7.27839 3.81742Z" fill="#53E544" stroke="#53E544"/>
</svg>
