<svg width="25" height="25" viewBox="0 0 25 25" fill="none" xmlns="http://www.w3.org/2000/svg">
<path d="M10.0348 13.8857L9.68585 13.854C8.15803 13.7151 7.39412 13.6457 7.15146 13.1231C6.90881 12.6005 7.34869 11.9721 8.22846 10.7153L12.1029 5.18044C12.684 4.35017 12.9746 3.93503 13.2253 4.02331C13.4759 4.11158 13.4422 4.6172 13.3748 5.62843L13.1507 8.98944C13.0894 9.90964 13.0587 10.3697 13.3231 10.6794C13.5875 10.989 14.0467 11.0308 14.9652 11.1143L15.3142 11.146C16.842 11.2849 17.6059 11.3543 17.8485 11.8769C18.0912 12.3995 17.6513 13.0279 16.7715 14.2847L12.8971 19.8196C12.316 20.6498 12.0254 21.065 11.7747 20.9767C11.5241 20.8884 11.5578 20.3828 11.6252 19.3716L11.8493 16.0106C11.9106 15.0904 11.9413 14.6303 11.6769 14.3206C11.4125 14.011 10.9533 13.9692 10.0348 13.8857Z" stroke="#B3B3B3"/>
</svg>
